<svg width="253" height="87" viewBox="0 0 253 87" fill="none" xmlns="http://www.w3.org/2000/svg">
<rect width="253" height="87" rx="16" fill="#83C5BE"/>
<path d="M79.1641 47.2324C78.9004 49.4883 78.0654 51.2314 76.6592 52.4619C75.2627 53.6826 73.4023 54.293 71.0781 54.293C68.5586 54.293 66.5371 53.3896 65.0137 51.583C63.5 49.7764 62.7432 47.3594 62.7432 44.332V42.2812C62.7432 40.2988 63.0947 38.5557 63.7979 37.0518C64.5107 35.5479 65.5166 34.3955 66.8154 33.5947C68.1143 32.7842 69.6182 32.3789 71.3271 32.3789C73.5928 32.3789 75.4092 33.0137 76.7764 34.2832C78.1436 35.543 78.9395 37.291 79.1641 39.5273H76.3369C76.0928 37.8281 75.5605 36.5977 74.7402 35.8359C73.9297 35.0742 72.792 34.6934 71.3271 34.6934C69.5303 34.6934 68.1191 35.3574 67.0938 36.6855C66.0781 38.0137 65.5703 39.9033 65.5703 42.3545V44.4199C65.5703 46.7344 66.0537 48.5752 67.0205 49.9424C67.9873 51.3096 69.3398 51.9932 71.0781 51.9932C72.6406 51.9932 73.8369 51.6416 74.667 50.9385C75.5068 50.2256 76.0635 48.9902 76.3369 47.2324H79.1641ZM81.874 45.9287C81.874 44.376 82.1768 42.9795 82.7822 41.7393C83.3975 40.499 84.2471 39.542 85.3311 38.8682C86.4248 38.1943 87.6699 37.8574 89.0664 37.8574C91.2246 37.8574 92.9678 38.6045 94.2959 40.0986C95.6338 41.5928 96.3027 43.5801 96.3027 46.0605V46.251C96.3027 47.7939 96.0049 49.1807 95.4092 50.4111C94.8232 51.6318 93.9785 52.584 92.875 53.2676C91.7812 53.9512 90.5215 54.293 89.0957 54.293C86.9473 54.293 85.2041 53.5459 83.8662 52.0518C82.5381 50.5576 81.874 48.5801 81.874 46.1191V45.9287ZM84.5986 46.251C84.5986 48.0088 85.0039 49.4199 85.8145 50.4844C86.6348 51.5488 87.7285 52.0811 89.0957 52.0811C90.4727 52.0811 91.5664 51.5439 92.377 50.4697C93.1875 49.3857 93.5928 47.8721 93.5928 45.9287C93.5928 44.1904 93.1777 42.7842 92.3477 41.71C91.5273 40.626 90.4336 40.084 89.0664 40.084C87.7285 40.084 86.6494 40.6162 85.8291 41.6807C85.0088 42.7451 84.5986 44.2686 84.5986 46.251ZM99.042 45.9434C99.042 43.5117 99.6182 41.5586 100.771 40.084C101.923 38.5996 103.432 37.8574 105.297 37.8574C107.152 37.8574 108.622 38.4922 109.706 39.7617V31.5H112.416V54H109.926L109.794 52.3008C108.71 53.6289 107.201 54.293 105.268 54.293C103.432 54.293 101.933 53.541 100.771 52.0371C99.6182 50.5332 99.042 48.5703 99.042 46.1484V45.9434ZM101.752 46.251C101.752 48.0479 102.123 49.4541 102.865 50.4697C103.607 51.4854 104.633 51.9932 105.941 51.9932C107.66 51.9932 108.915 51.2217 109.706 49.6787V42.3984C108.896 40.9043 107.65 40.1572 105.971 40.1572C104.643 40.1572 103.607 40.6699 102.865 41.6953C102.123 42.7207 101.752 44.2393 101.752 46.251ZM123.212 54.293C121.063 54.293 119.315 53.5898 117.968 52.1836C116.62 50.7676 115.946 48.8779 115.946 46.5146V46.0166C115.946 44.4443 116.244 43.043 116.84 41.8125C117.445 40.5723 118.285 39.6055 119.359 38.9121C120.443 38.209 121.615 37.8574 122.875 37.8574C124.936 37.8574 126.537 38.5361 127.68 39.8936C128.822 41.251 129.394 43.1943 129.394 45.7236V46.8516H118.656C118.695 48.4141 119.149 49.6787 120.019 50.6455C120.897 51.6025 122.011 52.0811 123.358 52.0811C124.315 52.0811 125.126 51.8857 125.79 51.4951C126.454 51.1045 127.035 50.5869 127.533 49.9424L129.188 51.2314C127.86 53.2725 125.868 54.293 123.212 54.293ZM122.875 40.084C121.781 40.084 120.863 40.4844 120.121 41.2852C119.379 42.0762 118.92 43.1895 118.744 44.625H126.684V44.4199C126.605 43.043 126.234 41.9785 125.57 41.2266C124.906 40.4648 124.008 40.084 122.875 40.084ZM148.656 47.2324C148.393 49.4883 147.558 51.2314 146.151 52.4619C144.755 53.6826 142.895 54.293 140.57 54.293C138.051 54.293 136.029 53.3896 134.506 51.583C132.992 49.7764 132.235 47.3594 132.235 44.332V42.2812C132.235 40.2988 132.587 38.5557 133.29 37.0518C134.003 35.5479 135.009 34.3955 136.308 33.5947C137.606 32.7842 139.11 32.3789 140.819 32.3789C143.085 32.3789 144.901 33.0137 146.269 34.2832C147.636 35.543 148.432 37.291 148.656 39.5273H145.829C145.585 37.8281 145.053 36.5977 144.232 35.8359C143.422 35.0742 142.284 34.6934 140.819 34.6934C139.022 34.6934 137.611 35.3574 136.586 36.6855C135.57 38.0137 135.062 39.9033 135.062 42.3545V44.4199C135.062 46.7344 135.546 48.5752 136.513 49.9424C137.479 51.3096 138.832 51.9932 140.57 51.9932C142.133 51.9932 143.329 51.6416 144.159 50.9385C144.999 50.2256 145.556 48.9902 145.829 47.2324H148.656ZM161.869 54C161.713 53.6875 161.586 53.1309 161.488 52.3301C160.229 53.6387 158.725 54.293 156.977 54.293C155.414 54.293 154.13 53.8535 153.124 52.9746C152.128 52.0859 151.63 50.9629 151.63 49.6055C151.63 47.9551 152.255 46.6758 153.505 45.7676C154.765 44.8496 156.532 44.3906 158.808 44.3906H161.444V43.1455C161.444 42.1982 161.161 41.4463 160.595 40.8896C160.028 40.3232 159.193 40.04 158.09 40.04C157.123 40.04 156.312 40.2842 155.658 40.7725C155.004 41.2607 154.677 41.8516 154.677 42.5449H151.952C151.952 41.7539 152.23 40.9922 152.787 40.2598C153.354 39.5176 154.115 38.9316 155.072 38.502C156.039 38.0723 157.099 37.8574 158.251 37.8574C160.077 37.8574 161.508 38.3164 162.543 39.2344C163.578 40.1426 164.115 41.3975 164.154 42.999V50.2939C164.154 51.749 164.34 52.9062 164.711 53.7656V54H161.869ZM157.372 51.9346C158.222 51.9346 159.027 51.7148 159.789 51.2754C160.551 50.8359 161.103 50.2646 161.444 49.5615V46.3096H159.32C156 46.3096 154.34 47.2812 154.34 49.2246C154.34 50.0742 154.623 50.7383 155.189 51.2168C155.756 51.6953 156.483 51.9346 157.372 51.9346ZM177.631 49.7959C177.631 49.0635 177.353 48.4971 176.796 48.0967C176.249 47.6865 175.287 47.335 173.91 47.042C172.543 46.749 171.454 46.3975 170.644 45.9873C169.843 45.5771 169.247 45.0889 168.856 44.5225C168.476 43.9561 168.285 43.2822 168.285 42.501C168.285 41.2021 168.832 40.1035 169.926 39.2051C171.029 38.3066 172.436 37.8574 174.145 37.8574C175.941 37.8574 177.396 38.3213 178.51 39.249C179.633 40.1768 180.194 41.3633 180.194 42.8086H177.47C177.47 42.0664 177.152 41.4268 176.518 40.8896C175.893 40.3525 175.102 40.084 174.145 40.084C173.158 40.084 172.387 40.2988 171.83 40.7285C171.273 41.1582 170.995 41.7197 170.995 42.4131C170.995 43.0674 171.254 43.5605 171.771 43.8926C172.289 44.2246 173.222 44.542 174.569 44.8447C175.927 45.1475 177.025 45.5088 177.865 45.9287C178.705 46.3486 179.325 46.8564 179.726 47.4521C180.136 48.0381 180.341 48.7559 180.341 49.6055C180.341 51.0215 179.774 52.1592 178.642 53.0186C177.509 53.8682 176.039 54.293 174.232 54.293C172.963 54.293 171.84 54.0684 170.863 53.6191C169.887 53.1699 169.12 52.5449 168.563 51.7441C168.017 50.9336 167.743 50.0596 167.743 49.1221H170.453C170.502 50.0303 170.863 50.7529 171.537 51.29C172.221 51.8174 173.119 52.0811 174.232 52.0811C175.258 52.0811 176.078 51.876 176.693 51.4658C177.318 51.0459 177.631 50.4893 177.631 49.7959ZM187.548 34.3125V38.1504H190.507V40.2451H187.548V50.0742C187.548 50.709 187.68 51.1875 187.943 51.5098C188.207 51.8223 188.656 51.9785 189.291 51.9785C189.604 51.9785 190.033 51.9199 190.58 51.8027V54C189.867 54.1953 189.174 54.293 188.5 54.293C187.289 54.293 186.376 53.9268 185.761 53.1943C185.146 52.4619 184.838 51.4219 184.838 50.0742V40.2451H181.952V38.1504H184.838V34.3125H187.548Z" fill="white"/>
</svg>
