<svg width="83" height="50" viewBox="0 0 83 50" fill="none" xmlns="http://www.w3.org/2000/svg">
<g clip-path="url(#clip0_8_120)">
<path d="M32.1044 40.0392L32.2058 40.1373C33.2895 41.2408 33.8837 42.711 33.861 44.2332C33.8382 45.7553 33.2004 47.2084 32.0842 48.2811C32.0842 48.2811 32.0099 48.366 31.9761 48.3857C30.844 49.4334 29.3343 50.0127 27.7678 50.0005C26.2013 49.9883 24.7015 49.3856 23.5869 48.3203C17.062 42.5294 7.65294 35.2484 1.90481 29.2026C1.29712 28.6517 0.814047 27.9849 0.486095 27.2442C0.158142 26.5035 -0.00757286 25.7051 -0.000591221 24.8993C0.00639042 24.0935 0.185917 23.2979 0.526658 22.5627C0.867399 21.8274 1.36195 21.1685 1.97911 20.6275C5.63333 16.2419 18.4872 6.15036 23.5937 1.67324C24.6174 0.710258 25.961 0.129887 27.3854 0.0353594C28.8098 -0.0591683 30.2226 0.338276 31.3727 1.157C32.5227 1.97571 33.3353 3.16262 33.6659 4.50659C33.9966 5.85056 33.8238 7.26446 33.1784 8.49676C33.1079 8.63814 33.0065 8.76302 32.8812 8.86278L14.6439 25.0589C17.5619 27.7974 20.1083 29.8366 22.6548 31.8759C25.9574 34.427 29.1141 37.15 32.1112 40.0327L32.1044 40.0392ZM50.8956 40.0392L50.7943 40.1373C49.7105 41.2408 49.1164 42.711 49.1391 44.2332C49.1618 45.7553 49.7996 47.2084 50.9159 48.2811C50.9159 48.2811 50.9902 48.366 51.024 48.3857C52.1573 49.4412 53.6728 50.0255 55.2458 50.0133C56.8188 50.0011 58.3244 49.3934 59.4401 48.3203C65.965 42.5294 75.3741 35.2484 81.1223 29.2026C81.7304 28.6522 82.214 27.9857 82.5425 27.2452C82.871 26.5048 83.0374 25.7065 83.031 24.9007C83.0247 24.095 82.8458 23.2992 82.5056 22.5637C82.1655 21.8282 81.6714 21.1689 81.0547 20.6275C77.4005 16.2419 64.5466 6.15036 59.4401 1.67324C58.422 0.684326 57.0712 0.0812675 55.6329 -0.0265593C54.1946 -0.134386 52.764 0.260161 51.6006 1.08552C50.4372 1.91088 49.618 3.11238 49.2916 4.4721C48.9652 5.83182 49.1533 7.25971 49.8216 8.49676C49.8921 8.6364 49.9909 8.76089 50.1121 8.86278L68.3494 25.0589C65.4314 27.7974 62.8782 29.8366 60.3385 31.8759C57.0359 34.427 53.8792 37.15 50.8821 40.0327L50.8956 40.0392Z" fill="#006D77"/>
</g>
<defs>
<clipPath id="clip0_8_120">
<rect width="83" height="50" fill="white"/>
</clipPath>
</defs>
</svg>
