<svg width="79" height="55" viewBox="0 0 79 55" fill="none" xmlns="http://www.w3.org/2000/svg">
<g clip-path="url(#clip0_8_148)">
<path fill-rule="evenodd" clip-rule="evenodd" d="M66.1355 55V53.775H29.8114C25.8833 53.775 25.6969 46.1963 29.8114 46.1963H32.6788H75.059C75.3226 46.1963 75.5412 46.4128 75.5412 46.6603V53.311C75.5412 53.5585 75.3226 53.775 75.059 53.775H72.886V55H66.1355ZM0 55V31.113C0 28.4589 1.36296 26.1018 3.44596 24.6479C6.31331 22.6496 14.311 22.4702 17.352 24.1592C20.5858 25.9533 20.5729 29.7272 23.3631 32.3504C27.0984 35.8645 26.1598 36.2666 31.2515 36.2666H41.4544C50.5515 36.2666 45.659 44.7795 40.2779 44.5135H30.9944C26.5005 44.5135 26.1212 45.2064 22.4116 42.8307L22.2123 55H0ZM50.2429 44.563C48.9314 44.563 47.8642 43.536 47.8642 42.2739C47.8642 41.0118 48.9314 39.9848 50.2429 39.9848H66.3219L74.5061 23.955C75.0783 22.8228 76.4991 22.3588 77.6692 22.9094C78.8457 23.4601 79.3279 24.8273 78.7557 25.9533L70.0122 43.0782C69.6715 43.9381 68.8036 44.5506 67.7878 44.5506H50.2429V44.563ZM16.5033 0C22.7716 0 27.8506 4.88751 27.8506 10.9196C27.8506 16.9516 22.7716 21.8391 16.5033 21.8391C10.235 21.8391 5.15609 16.9516 5.15609 10.9196C5.15609 4.88751 10.235 0 16.5033 0Z" fill="#006D77"/>
</g>
<defs>
<clipPath id="clip0_8_148">
<rect width="79" height="55" fill="white"/>
</clipPath>
</defs>
</svg>
