<svg width="255" height="88" viewBox="0 0 255 88" fill="none" xmlns="http://www.w3.org/2000/svg">
<rect width="255" height="88" rx="16" fill="#83C5BE"/>
<path d="M66.2119 34.9863H59.3564V54H56.5586V34.9863H49.7178V32.6719H66.2119V34.9863ZM75.499 40.582C75.0889 40.5137 74.6445 40.4795 74.166 40.4795C72.3887 40.4795 71.1826 41.2363 70.5479 42.75V54H67.8379V38.1504H70.4746L70.5186 39.9814C71.4072 38.5654 72.667 37.8574 74.2979 37.8574C74.8252 37.8574 75.2256 37.9258 75.499 38.0625V40.582ZM80.9482 54H78.2383V38.1504H80.9482V54ZM78.0186 33.9463C78.0186 33.5068 78.1504 33.1357 78.4141 32.833C78.6875 32.5303 79.0879 32.3789 79.6152 32.3789C80.1426 32.3789 80.543 32.5303 80.8164 32.833C81.0898 33.1357 81.2266 33.5068 81.2266 33.9463C81.2266 34.3857 81.0898 34.752 80.8164 35.0449C80.543 35.3379 80.1426 35.4844 79.6152 35.4844C79.0879 35.4844 78.6875 35.3379 78.4141 35.0449C78.1504 34.752 78.0186 34.3857 78.0186 33.9463ZM90.5283 50.3232L94.4541 38.1504H97.2227L91.5391 54H89.4736L83.7314 38.1504H86.5L90.5283 50.3232ZM102.774 54H100.064V38.1504H102.774V54ZM99.8447 33.9463C99.8447 33.5068 99.9766 33.1357 100.24 32.833C100.514 32.5303 100.914 32.3789 101.441 32.3789C101.969 32.3789 102.369 32.5303 102.643 32.833C102.916 33.1357 103.053 33.5068 103.053 33.9463C103.053 34.3857 102.916 34.752 102.643 35.0449C102.369 35.3379 101.969 35.4844 101.441 35.4844C100.914 35.4844 100.514 35.3379 100.24 35.0449C99.9766 34.752 99.8447 34.3857 99.8447 33.9463ZM116.91 54C116.754 53.6875 116.627 53.1309 116.529 52.3301C115.27 53.6387 113.766 54.293 112.018 54.293C110.455 54.293 109.171 53.8535 108.165 52.9746C107.169 52.0859 106.671 50.9629 106.671 49.6055C106.671 47.9551 107.296 46.6758 108.546 45.7676C109.806 44.8496 111.573 44.3906 113.849 44.3906H116.485V43.1455C116.485 42.1982 116.202 41.4463 115.636 40.8896C115.069 40.3232 114.234 40.04 113.131 40.04C112.164 40.04 111.354 40.2842 110.699 40.7725C110.045 41.2607 109.718 41.8516 109.718 42.5449H106.993C106.993 41.7539 107.271 40.9922 107.828 40.2598C108.395 39.5176 109.156 38.9316 110.113 38.502C111.08 38.0723 112.14 37.8574 113.292 37.8574C115.118 37.8574 116.549 38.3164 117.584 39.2344C118.619 40.1426 119.156 41.3975 119.195 42.999V50.2939C119.195 51.749 119.381 52.9062 119.752 53.7656V54H116.91ZM112.413 51.9346C113.263 51.9346 114.068 51.7148 114.83 51.2754C115.592 50.8359 116.144 50.2646 116.485 49.5615V46.3096H114.361C111.041 46.3096 109.381 47.2812 109.381 49.2246C109.381 50.0742 109.664 50.7383 110.23 51.2168C110.797 51.6953 111.524 51.9346 112.413 51.9346ZM147.057 51.2021C146.334 52.2373 145.323 53.0137 144.024 53.5312C142.735 54.0391 141.231 54.293 139.513 54.293C137.774 54.293 136.231 53.8877 134.884 53.0771C133.536 52.2568 132.491 51.0947 131.749 49.5908C131.017 48.0869 130.641 46.3438 130.621 44.3613V42.501C130.621 39.2881 131.368 36.7979 132.862 35.0303C134.366 33.2627 136.476 32.3789 139.19 32.3789C141.417 32.3789 143.209 32.9502 144.566 34.0928C145.924 35.2256 146.754 36.8369 147.057 38.9268H144.244C143.717 36.1045 142.037 34.6934 139.205 34.6934C137.32 34.6934 135.89 35.3574 134.913 36.6855C133.946 38.0039 133.458 39.918 133.448 42.4277V44.1709C133.448 46.5635 133.995 48.4678 135.089 49.8838C136.183 51.29 137.662 51.9932 139.527 51.9932C140.582 51.9932 141.505 51.876 142.296 51.6416C143.087 51.4072 143.741 51.0117 144.259 50.4551V45.665H139.322V43.3799H147.057V51.2021ZM161.119 54C160.963 53.6875 160.836 53.1309 160.738 52.3301C159.479 53.6387 157.975 54.293 156.227 54.293C154.664 54.293 153.38 53.8535 152.374 52.9746C151.378 52.0859 150.88 50.9629 150.88 49.6055C150.88 47.9551 151.505 46.6758 152.755 45.7676C154.015 44.8496 155.782 44.3906 158.058 44.3906H160.694V43.1455C160.694 42.1982 160.411 41.4463 159.845 40.8896C159.278 40.3232 158.443 40.04 157.34 40.04C156.373 40.04 155.562 40.2842 154.908 40.7725C154.254 41.2607 153.927 41.8516 153.927 42.5449H151.202C151.202 41.7539 151.48 40.9922 152.037 40.2598C152.604 39.5176 153.365 38.9316 154.322 38.502C155.289 38.0723 156.349 37.8574 157.501 37.8574C159.327 37.8574 160.758 38.3164 161.793 39.2344C162.828 40.1426 163.365 41.3975 163.404 42.999V50.2939C163.404 51.749 163.59 52.9062 163.961 53.7656V54H161.119ZM156.622 51.9346C157.472 51.9346 158.277 51.7148 159.039 51.2754C159.801 50.8359 160.353 50.2646 160.694 49.5615V46.3096H158.57C155.25 46.3096 153.59 47.2812 153.59 49.2246C153.59 50.0742 153.873 50.7383 154.439 51.2168C155.006 51.6953 155.733 51.9346 156.622 51.9346ZM170.201 38.1504L170.274 39.9082C171.437 38.541 173.004 37.8574 174.977 37.8574C177.193 37.8574 178.702 38.707 179.503 40.4062C180.03 39.6445 180.714 39.0293 181.554 38.5605C182.403 38.0918 183.404 37.8574 184.557 37.8574C188.033 37.8574 189.801 39.6982 189.859 43.3799V54H187.149V43.541C187.149 42.4082 186.891 41.5635 186.373 41.0068C185.855 40.4404 184.986 40.1572 183.766 40.1572C182.76 40.1572 181.925 40.46 181.261 41.0654C180.597 41.6611 180.211 42.4668 180.104 43.4824V54H177.379V43.6143C177.379 41.3096 176.251 40.1572 173.995 40.1572C172.218 40.1572 171.002 40.9141 170.348 42.4277V54H167.638V38.1504H170.201ZM200.538 54.293C198.39 54.293 196.642 53.5898 195.294 52.1836C193.946 50.7676 193.272 48.8779 193.272 46.5146V46.0166C193.272 44.4443 193.57 43.043 194.166 41.8125C194.771 40.5723 195.611 39.6055 196.686 38.9121C197.77 38.209 198.941 37.8574 200.201 37.8574C202.262 37.8574 203.863 38.5361 205.006 39.8936C206.148 41.251 206.72 43.1943 206.72 45.7236V46.8516H195.982C196.021 48.4141 196.476 49.6787 197.345 50.6455C198.224 51.6025 199.337 52.0811 200.685 52.0811C201.642 52.0811 202.452 51.8857 203.116 51.4951C203.78 51.1045 204.361 50.5869 204.859 49.9424L206.515 51.2314C205.187 53.2725 203.194 54.293 200.538 54.293ZM200.201 40.084C199.107 40.084 198.189 40.4844 197.447 41.2852C196.705 42.0762 196.246 43.1895 196.07 44.625H204.01V44.4199C203.932 43.043 203.561 41.9785 202.896 41.2266C202.232 40.4648 201.334 40.084 200.201 40.084Z" fill="white"/>
</svg>
